<svg id="Insurance" xmlns="http://www.w3.org/2000/svg" xmlns:xlink="http://www.w3.org/1999/xlink" viewBox="0 0 285.85 67.84"><defs><style>.cls-1{fill:#323232;}.cls-2{fill:none;stroke:#323232;stroke-miterlimit:10;stroke-width:0.5px;}.cls-3{fill:url(#linear-gradient);}.cls-4{fill:#fff;}.cls-5{fill:url(#linear-gradient-2);}.cls-6{fill:url(#linear-gradient-3);}.cls-7{fill:url(#linear-gradient-4);}</style><linearGradient id="linear-gradient" x1="133.78" y1="50.64" x2="110.73" y2="16.98" gradientUnits="userSpaceOnUse"><stop offset="0" stop-color="#be0000"/><stop offset="0.39" stop-color="#de0000"/><stop offset="0.77" stop-color="#f60000"/><stop offset="1" stop-color="red"/></linearGradient><linearGradient id="linear-gradient-2" x1="127.41" y1="35.44" x2="127.72" y2="31.89" gradientUnits="userSpaceOnUse"><stop offset="0.65" stop-color="#fff" stop-opacity="0"/><stop offset="0.69" stop-color="#ededed" stop-opacity="0.23"/><stop offset="0.76" stop-color="#d7d7d7" stop-opacity="0.5"/><stop offset="0.81" stop-color="#c6c6c6" stop-opacity="0.72"/><stop offset="0.87" stop-color="#b9b9b9" stop-opacity="0.87"/><stop offset="0.91" stop-color="#b2b2b2" stop-opacity="0.97"/><stop offset="0.95" stop-color="#afafaf"/></linearGradient><linearGradient id="linear-gradient-3" x1="122.85" y1="44.81" x2="137.79" y2="44.81" gradientUnits="userSpaceOnUse"><stop offset="0" stop-color="#fff" stop-opacity="0"/><stop offset="0.07" stop-color="#f3f3f3" stop-opacity="0.15"/><stop offset="0.21" stop-color="#dedede" stop-opacity="0.41"/><stop offset="0.35" stop-color="#cdcdcd" stop-opacity="0.62"/><stop offset="0.49" stop-color="silver" stop-opacity="0.79"/><stop offset="0.63" stop-color="#b7b7b7" stop-opacity="0.91"/><stop offset="0.77" stop-color="#b1b1b1" stop-opacity="0.98"/><stop offset="0.9" stop-color="#afafaf"/></linearGradient><linearGradient id="linear-gradient-4" x1="104.18" y1="29.31" x2="120.89" y2="29.31" gradientUnits="userSpaceOnUse"><stop offset="0.25" stop-color="#fff" stop-opacity="0"/><stop offset="0.36" stop-color="#f7f7f7" stop-opacity="0.11"/><stop offset="0.58" stop-color="#e1e1e1" stop-opacity="0.38"/><stop offset="0.88" stop-color="#bebebe" stop-opacity="0.82"/><stop offset="1" stop-color="#afafaf"/></linearGradient></defs><title>QFF</title><path class="cls-1" d="M184,25.88a3.94,3.94,0,0,1-1.83,3.59L184,32.3h-1.61l-1.47-2.43a2.81,2.81,0,0,1-.59.06c-2.21,0-3.74-1.56-3.74-4.05V20.94c0-2.49,1.46-4.05,3.74-4.05S184,18.45,184,20.94Zm-6.16,0a2.43,2.43,0,1,0,4.83,0v-5a2.43,2.43,0,1,0-4.83,0Z"/><path class="cls-1" d="M187.15,29.74l3.63-12.66h1.34l3.67,12.66h-1.37l-.83-2.91h-4.33l-.82,2.91Zm2.45-4.18h3.66l-1.85-6.49Z"/><path class="cls-1" d="M206.63,29.74h-1.09L200.61,20v9.79h-1.23V17.08h1.17l4.85,9.63V17.08h1.23Z"/><path class="cls-1" d="M210.13,17.08h7.31v1.33h-3V29.74h-1.32V18.41h-3Z"/><path class="cls-1" d="M219.09,29.74l3.64-12.66h1.33l3.68,12.66h-1.37l-.83-2.91h-4.33l-.82,2.91Zm2.46-4.18h3.66l-1.86-6.49Z"/><path class="cls-1" d="M236.47,20.68v-.3a2.13,2.13,0,0,0-2.24-2.26c-1.4,0-2.2.79-2.2,1.91a2,2,0,0,0,1.3,1.85l1.87.85c1.3.57,2.76,1.34,2.76,3.52a3.49,3.49,0,0,1-3.71,3.68,3.43,3.43,0,0,1-3.72-3.56v-.31h1.3v.38a2.18,2.18,0,0,0,2.4,2.24,2.21,2.21,0,0,0,2.43-2.26c0-1.36-.89-1.9-1.94-2.36l-1.61-.74a3.35,3.35,0,0,1-2.34-3.17,3.2,3.2,0,0,1,3.46-3.26,3.33,3.33,0,0,1,3.52,3.56v.23Z"/><path class="cls-1" d="M178.17,50.74h-1.32V38.08h1.32Z"/><path class="cls-1" d="M190,50.74h-1.1L184,41v9.79h-1.23V38.08H184l4.85,9.63V38.08H190Z"/><path class="cls-1" d="M199.62,41.68v-.3a2.13,2.13,0,0,0-2.24-2.26c-1.4,0-2.2.79-2.2,1.91a2,2,0,0,0,1.3,1.85l1.87.85c1.3.57,2.76,1.34,2.76,3.52a3.49,3.49,0,0,1-3.71,3.68,3.43,3.43,0,0,1-3.72-3.56v-.31H195v.38a2.18,2.18,0,0,0,2.4,2.24,2.21,2.21,0,0,0,2.43-2.26c0-1.36-.89-1.9-1.94-2.36l-1.61-.74a3.35,3.35,0,0,1-2.34-3.17,3.2,3.2,0,0,1,3.46-3.26,3.33,3.33,0,0,1,3.52,3.56v.23Z"/><path class="cls-1" d="M212.37,38.08v8.8c0,2.49-1.49,4-3.67,4s-3.66-1.56-3.66-4v-8.8h1.32v8.84c0,1.54.85,2.68,2.34,2.68a2.38,2.38,0,0,0,2.35-2.68V38.08Z"/><path class="cls-1" d="M222.76,50.74l-2-5a4.11,4.11,0,0,1-.47,0h-2.11v5h-1.32V38.08h3.5a3.86,3.86,0,0,1,1.71,7.3l2.1,5.36Zm-4.55-11.37v5.11h2.08a2.43,2.43,0,0,0,2.58-2.6,2.38,2.38,0,0,0-2.58-2.51Z"/><path class="cls-1" d="M227.27,50.74l3.64-12.66h1.33l3.67,12.66h-1.37l-.83-2.91h-4.33l-.81,2.91Zm2.46-4.18h3.65l-1.85-6.49Z"/><path class="cls-1" d="M246.41,50.74h-1.09L240.38,41v9.79h-1.23V38.08h1.18l4.85,9.63V38.08h1.23Z"/><path class="cls-1" d="M258.1,46.69v.41a3.51,3.51,0,0,1-3.67,3.83c-2.2,0-3.72-1.56-3.72-4V41.94c0-2.49,1.46-4,3.72-4a3.51,3.51,0,0,1,3.67,3.83V42h-1.26v-.33a2.28,2.28,0,0,0-2.41-2.46A2.4,2.4,0,0,0,252,41.9v5a2.4,2.4,0,0,0,2.4,2.68,2.28,2.28,0,0,0,2.41-2.46v-.45Z"/><path class="cls-1" d="M263.53,44.92v4.49h5.32v1.33h-6.64V38.08h6.5v1.33h-5.18v4.2h4.74v1.31Z"/><line class="cls-2" x1="164.01" y1="16.93" x2="164.01" y2="50.95"/><path class="cls-3" d="M116.59,50.76h34.54L123.45,23a19.79,19.79,0,0,0-13.91-5.89h-5.79l.43,1.14,1.92,5Z"/><path class="cls-4" d="M106.1,23.24c3.78,6.46,13.71,7.14,14.79,17.18a.9.9,0,0,0,.77.81,34.21,34.21,0,0,1,16.13,7.13h0a.17.17,0,0,0,.11,0,.15.15,0,0,0,.12,0,.17.17,0,0,0,0-.24,34.44,34.44,0,0,0-12-8.19l-1.4-.56a1.92,1.92,0,0,1-1.2-1.83c.08-3,7.18-2.39,7.9-3.83l.12-.25a13.33,13.33,0,0,0-5.11-2.71,1.6,1.6,0,0,0,.33,1.06c.42.68-.46,1.78-1.75.6l-.11-.1c-9.59-8.79-16.78-4.23-20.58-14.09Z"/><path class="cls-5" d="M129.16,33.29a3,3,0,0,1-2.54-1.49.74.74,0,0,1-.67,1.12v2.4c1-.31,2.22-.49,3.21-.7Z"/><path class="cls-6" d="M122.85,41.44a34.18,34.18,0,0,1,14.94,6.92C127.75,39.78,123.17,41.33,122.85,41.44Z"/><path class="cls-7" d="M108.12,23.69h0a11.3,11.3,0,0,1-3.94-5.48l1.92,5c3.78,6.46,13.7,7.14,14.79,17.18C119.79,27.6,114.17,29.52,108.12,23.69Z"/><polygon class="cls-1" points="18.32 24.26 18.32 29.73 17 29.73 17 17.08 23.49 17.08 23.49 18.41 18.32 18.41 18.32 22.95 23.06 22.95 23.06 24.26 18.32 24.26"/><path class="cls-1" d="M33.24,29.73l-2-5a4.11,4.11,0,0,1-.47,0H28.69v5H27.38V17.08h3.49a3.62,3.62,0,0,1,3.83,3.77,3.63,3.63,0,0,1-2.11,3.52l2.09,5.36ZM28.69,18.37v5.1h2.08a2.43,2.43,0,0,0,2.58-2.6,2.37,2.37,0,0,0-2.58-2.5Z"/><polygon class="cls-1" points="39.93 23.91 39.93 28.4 45.24 28.4 45.24 29.73 38.61 29.73 38.61 17.08 45.1 17.08 45.1 18.41 39.93 18.41 39.93 22.6 44.67 22.6 44.67 23.91 39.93 23.91"/><path class="cls-1" d="M56.23,25.88a3.93,3.93,0,0,1-1.83,3.58l1.76,2.83H54.55l-1.47-2.43a2.81,2.81,0,0,1-.59.06c-2.21,0-3.73-1.56-3.73-4V20.93c0-2.49,1.45-4.05,3.73-4.05s3.74,1.56,3.74,4.05Zm-6.16,0a2.43,2.43,0,1,0,4.83,0v-5a2.43,2.43,0,1,0-4.83,0Z"/><path class="cls-1" d="M67.33,17.08v8.8c0,2.48-1.49,4-3.67,4S60,28.36,60,25.88v-8.8h1.31v8.84a2.36,2.36,0,1,0,4.69,0V17.08Z"/><polygon class="cls-1" points="72.99 23.91 72.99 28.4 78.3 28.4 78.3 29.73 71.68 29.73 71.68 17.08 78.17 17.08 78.17 18.41 72.99 18.41 72.99 22.6 77.73 22.6 77.73 23.91 72.99 23.91"/><polygon class="cls-1" points="89.51 29.73 88.42 29.73 83.49 19.95 83.49 29.73 82.26 29.73 82.26 17.08 83.44 17.08 88.28 26.7 88.28 17.08 89.51 17.08 89.51 29.73"/><polygon class="cls-1" points="92.87 17.08 100.18 17.08 100.18 18.41 97.18 18.41 97.18 29.73 95.87 29.73 95.87 18.41 92.87 18.41 92.87 17.08"/><polygon class="cls-1" points="53.38 45.26 53.38 50.73 52.06 50.73 52.06 38.08 58.55 38.08 58.55 39.4 53.38 39.4 53.38 43.95 58.12 43.95 58.12 45.26 53.38 45.26"/><polygon class="cls-1" points="63.75 49.4 68.72 49.4 68.72 50.73 62.44 50.73 62.44 38.08 63.75 38.08 63.75 49.4"/><polygon class="cls-1" points="71.58 38.08 74.14 44.24 76.72 38.08 78.05 38.08 74.76 45.66 74.76 50.73 73.45 50.73 73.45 45.68 70.16 38.08 71.58 38.08"/><polygon class="cls-1" points="83.05 44.91 83.05 49.4 88.36 49.4 88.36 50.73 81.73 50.73 81.73 38.08 88.22 38.08 88.22 39.4 83.05 39.4 83.05 43.6 87.79 43.6 87.79 44.91 83.05 44.91"/><path class="cls-1" d="M98.19,50.73l-2-5a4,4,0,0,1-.46,0H93.63v5H92.32V38.08h3.5a3.85,3.85,0,0,1,1.71,7.29l2.09,5.36ZM93.63,39.37v5.1h2.08a2.43,2.43,0,0,0,2.58-2.6,2.37,2.37,0,0,0-2.58-2.5Z"/></svg>